HIERARCHY
ROOT RootJoint
{
    OFFSET   0.000000   0.000000   0.000000
    CHANNELS 6 Xposition Yposition Zposition Xrotation Yrotation Zrotation
    JOINT pelvis_lowerback
    {
        OFFSET   0.000000   0.093605   0.000000
        CHANNELS 3 Xrotation Yrotation Zrotation
        JOINT lowerback_torso
        {
            OFFSET   0.000000   0.100000   0.000000
            CHANNELS 3 Xrotation Yrotation Zrotation
            JOINT torso_head
            {
                OFFSET   0.000000   0.282350   0.000000
                CHANNELS 3 Xrotation Yrotation Zrotation
                End Site
                {
                    OFFSET   0.000000   0.192650   0.000000
                }
            }
            JOINT rTorso_Clavicle
            {
                OFFSET  -0.001000   0.157500   0.000000
                CHANNELS 3 Xrotation Yrotation Zrotation
                JOINT rShoulder
                {
                    OFFSET  -0.117647   0.000000   0.000000
                    CHANNELS 3 Xrotation Yrotation Zrotation
                    JOINT rElbow
                    {
                        OFFSET  -0.245000   0.000000   0.000000
                        CHANNELS 3 Xrotation Yrotation Zrotation
                        JOINT rWrist
                        {
                            OFFSET  -0.240000   0.000000   0.000000
                            CHANNELS 3 Xrotation Yrotation Zrotation
                            End Site
                            {
                                OFFSET  -0.116353  -0.002500   0.000000
                            }
                        }
                    }
                }
            }
            JOINT lTorso_Clavicle
            {
                OFFSET   0.001000   0.157500   0.000000
                CHANNELS 3 Xrotation Yrotation Zrotation
                JOINT lShoulder
                {
                    OFFSET   0.117647   0.000000   0.000000
                    CHANNELS 3 Xrotation Yrotation Zrotation
                    JOINT lElbow
                    {
                        OFFSET   0.245000   0.000000   0.000000
                        CHANNELS 3 Xrotation Yrotation Zrotation
                        JOINT lWrist
                        {
                            OFFSET   0.240000   0.000000   0.000000
                            CHANNELS 3 Xrotation Yrotation Zrotation
                            End Site
                            {
                                OFFSET   0.116353  -0.002500   0.000000
                            }
                        }
                    }
                }
            }
        }
    }
    JOINT rHip
    {
        OFFSET  -0.100000  -0.051395   0.000000
        CHANNELS 3 Xrotation Yrotation Zrotation
        JOINT rKnee
        {
            OFFSET   0.000000  -0.410000   0.000000
            CHANNELS 3 Xrotation Yrotation Zrotation
            JOINT rAnkle
            {
                OFFSET   0.000000  -0.390000   0.000000
                CHANNELS 3 Xrotation Yrotation Zrotation
                JOINT rToeJoint
                {
                    OFFSET   0.000000  -0.050000   0.130000
                    CHANNELS 3 Xrotation Yrotation Zrotation
                    End Site
                    {
                        OFFSET  -0.010000   0.002000   0.060000
                    }
                }
            }
        }
    }
    JOINT lHip
    {
        OFFSET   0.100000  -0.051395   0.000000
        CHANNELS 3 Xrotation Yrotation Zrotation
        JOINT lKnee
        {
            OFFSET   0.000000  -0.410000   0.000000
            CHANNELS 3 Xrotation Yrotation Zrotation
            JOINT lAnkle
            {
                OFFSET   0.000000  -0.390000   0.000000
                CHANNELS 3 Xrotation Yrotation Zrotation
                JOINT lToeJoint
                {
                    OFFSET   0.000000  -0.050000   0.130000
                    CHANNELS 3 Xrotation Yrotation Zrotation
                    End Site
                    {
                        OFFSET   0.010000   0.002000   0.060000
                    }
                }
            }
        }
    }
}
MOTION
Frames: 14
Frame Time:   0.008333
 -2.225632   0.884056   4.382113  -5.054329  19.326057  -1.455131  12.850405  -0.414494   0.942634 -10.118674  -0.346576  -0.052918   2.176529  -3.512021   0.134636 -13.206209   2.714149 -32.939225 -42.768984   8.215669  -7.203834  -0.103008  41.428498   0.054739   1.398087   3.775411 -25.289262 -12.256378   2.541677  34.127085 -37.889543  -8.375221  12.839038  -0.073501 -35.037921  -0.050042   1.987141  -6.397585  30.199252 -12.905996  -3.146287 -15.288496  37.258814   0.007815   0.008845   3.093445  -5.770633   4.929058 -19.061051  -0.043576   0.006982  -8.398097  -1.589324  17.983064  45.245958  -0.015799  -0.018781  -5.858965   5.354842  -1.495519 -21.056733   0.074911   0.030574
 -2.223567   0.874749   4.386140  -5.606330  19.179152  -1.325154  13.457983  -0.289196   1.003528 -10.412446  -0.391470  -0.162535   2.161724  -3.418431   0.221132 -13.661433   2.861117 -33.580341 -42.866219   8.615600  -7.943588  -0.089432  41.778637   0.046756   1.599841   3.962061 -25.831536 -12.535399   2.043329  34.876767 -38.328770  -9.005044  13.555144  -0.061655 -35.180657  -0.042210   2.103198  -6.583332  30.633779 -12.718965  -3.005388 -15.418068  39.127896   0.008126   0.003670   0.693197  -5.997493   4.678826 -24.246667  -0.052008   0.012502  -8.611736  -1.619732  18.109761  47.931436  -0.013662  -0.012203  -7.377483   5.661720  -1.074341 -26.055568   0.083822   0.022515
 -2.221105   0.866760   4.389741  -6.314341  19.092343  -1.284189  14.168120  -0.144860   1.225029 -10.598272  -0.436332  -0.217478   2.160811  -3.329580   0.296060 -14.079005   2.995495 -34.111956 -42.947214   8.967069  -8.606460  -0.077005  42.099905   0.039773   1.776106   4.083640 -26.321675 -12.769630   1.575374  35.482504 -38.723952  -9.572786  14.171216  -0.051628 -35.312256  -0.035535   2.197548  -6.719416  30.993056 -12.627404  -2.837510 -15.477256  41.359955   0.009551  -0.001096  -2.009731  -6.148090   4.582640 -23.512586  -0.039972   0.009590  -8.786138  -1.650651  18.340545  50.622995  -0.009253  -0.005697  -8.659779   6.009408  -0.640995 -29.195213   0.082774   0.015022
 -2.218386   0.859497   4.393332  -7.056808  19.083630  -1.199189  14.819896  -0.023559   1.395675 -10.715156  -0.493390  -0.252642   2.168418  -3.247051   0.372342 -14.451799   3.122465 -34.567351 -43.010549   9.271809  -9.191698  -0.066031  42.387843   0.033895   1.918418   4.142186 -26.694937 -12.951546   1.118090  36.034958 -39.077879 -10.110305  14.712719  -0.043164 -35.429079  -0.029845   2.271691  -6.821550  31.230872 -12.457287  -2.693590 -15.577140  43.432181   0.010778  -0.003973  -4.146388  -6.284640   4.404476 -23.268981  -0.031161   0.007676  -8.936273  -1.677746  18.526294  53.211967  -0.003981   0.000162  -9.772913   6.325101  -0.221540 -31.101209   0.075528   0.009893
 -2.215488   0.852688   4.396953  -7.775140  19.115906  -1.087487  15.397588   0.089985   1.525922 -10.817067  -0.547838  -0.290464   2.173060  -3.169800   0.441934 -14.788052   3.245362 -34.972319 -43.061796   9.546005  -9.719059  -0.056609  42.649822   0.029037   2.035605   4.159131 -26.985639 -13.098949   0.680222  36.547427 -39.397984 -10.619772  15.200996  -0.036123 -35.536287  -0.025058   2.335586  -6.907473  31.390729 -12.236366  -2.563191 -15.711189  45.338220   0.011730  -0.005659  -5.988533  -6.431695   4.193803 -23.170065  -0.024543   0.006163  -9.073161  -1.698280  18.673571  55.669275   0.001014   0.004667 -10.761431   6.603783   0.178050 -32.248857   0.065754   0.006675
 -2.212210   0.846299   4.400481  -8.443166  19.169437  -0.958280  15.901200   0.236502   1.723594 -10.900776  -0.586913  -0.153291   2.115313  -3.008082   0.238273 -15.098144   3.384144 -35.491184 -43.106653   9.878338 -10.270310  -0.048923  42.918254   0.025188   2.178554   4.235541 -27.305881 -13.303746   0.371865  36.289849 -39.721840 -10.885360  15.487409  -0.030988 -35.749174  -0.022003   2.646382  -7.398582  31.856195 -11.980194  -2.439874 -15.892558  47.051651   0.012540  -0.006722  -7.592547  -6.578198   3.961787 -23.137825  -0.019492   0.004949  -9.201027  -1.715311  18.760528  57.980482   0.005431   0.007265 -11.650583   6.856209   0.558547 -32.888656   0.055285   0.004746
 -2.208970   0.840119   4.404048  -9.060643  19.243101  -0.811503  16.351232   0.365948   1.895673 -11.012793  -0.618371  -0.125808   2.089391  -2.884608   0.208716 -15.380180   3.509404 -35.879426 -43.144759  10.142456 -10.739846  -0.042078  43.152811   0.021865   2.302835   4.283727 -27.571550 -13.478054   0.084093  36.113398 -40.019822 -11.077596  15.703154  -0.025724 -35.856815  -0.018474   2.790789  -7.616223  32.081679 -11.719354  -2.312699 -16.096510  48.667036   0.013146  -0.007140  -9.088043  -6.735454   3.733491 -23.097178  -0.015414   0.003977  -9.322212  -1.721522  18.826549  60.151711   0.008914   0.009130 -12.459944   7.067541   0.914206 -33.231382   0.045562   0.003507
 -2.205183   0.835957   4.407240  -9.556983  19.387126  -0.664153  16.551158   0.383141   2.025070 -10.929592  -0.626406  -0.099023   2.179726  -2.854159   0.250486 -15.588131   3.578023 -36.257443 -42.752574  10.036555 -10.884962  -0.032283  42.774162   0.017525   2.567983   4.735800 -28.259550 -13.558666  -0.019266  36.128977 -39.971717 -10.886272  15.662600  -0.019439 -35.414901  -0.014402   3.054648  -8.014144  32.535535 -11.436993  -2.249340 -16.397075  49.802117   0.013269  -0.007151  -9.568294  -6.754772   3.951399 -23.966384  -0.013686   0.003360  -9.375976  -1.530191  18.818744  61.625173   0.012675   0.010247 -12.336315   7.397601   1.029802 -35.896834   0.043205  -0.008513
 -2.201226   0.833080   4.409920  -9.947979  19.585105  -0.509181  16.701084   0.384255   2.079593 -10.832525  -0.630765  -0.106076   2.281759  -2.838458   0.334168 -15.758397   3.612066 -36.448398 -42.369069   9.810121 -10.912656  -0.025534  42.342942   0.014307   2.678232   4.865483 -28.634823 -13.618108  -0.111230  36.178183 -39.918957 -10.654243  15.587808  -0.015004 -34.917273  -0.011843   3.117014  -8.064150  32.666632 -11.134644  -2.242618 -16.720747  50.574496   0.012501  -0.006510  -9.667000  -6.804153   4.106126 -24.984475  -0.013197   0.002717  -9.476905  -1.308674  18.743794  62.820328   0.015341   0.010502 -12.164481   7.690947   1.135597 -37.519251   0.038091  -0.014037
 -2.197207   0.831035   4.412083 -10.252853  19.814202  -0.355454  16.838471   0.392992   2.079543 -10.728234  -0.623459  -0.130620   2.380978  -2.826168   0.424577 -15.908106   3.632208 -36.533659 -42.006885   9.534608 -10.881009  -0.020907  41.906869   0.011775   2.683617   4.801477 -28.831635 -13.670585  -0.198686  36.234841 -39.869391 -10.427054  15.511014  -0.011940 -34.424891  -0.010358   3.074430  -7.948918  32.655597 -10.822805  -2.243810 -17.045081  51.082495   0.011322  -0.005516  -9.572254  -6.869225   4.206218 -25.992494  -0.013180   0.001686  -9.637159  -1.092003  18.620149  63.848934   0.016984   0.010159 -11.965746   7.946571   1.232019 -38.413541   0.032048  -0.015132
 -2.193192   0.829532   4.413762 -10.487957  20.073419  -0.209328  16.977807   0.410073   2.045295 -10.611729  -0.606094  -0.164586   2.476221  -2.815210   0.513933 -16.039643   3.648106 -36.566013 -41.666075   9.245979 -10.818366  -0.017717  41.481910   0.009756   2.630781   4.634601 -28.931320 -13.718539  -0.281182  36.293229 -39.822950 -10.212948  15.437847  -0.009871 -33.953267  -0.009614   2.987412  -7.765345  32.584032 -10.504582  -2.228419 -17.363348  51.396395   0.009977  -0.004444  -9.364345  -6.930404   4.260823 -26.964126  -0.013329   0.000083  -9.851963  -0.892589  18.465138  64.757533   0.017856   0.009517 -11.756349   8.171462   1.319997 -38.866858   0.026255  -0.014048
 -2.189332   0.828211   4.415045 -10.642276  20.378942  -0.053608  17.106182   0.423694   1.958067 -10.484035  -0.587488  -0.213073   2.566434  -2.806759   0.598987 -16.154343   3.663913 -36.581183 -41.345074   8.963091 -10.741578  -0.015427  41.073856   0.008092   2.543107   4.407512 -28.965093 -13.762639  -0.359012  36.350228 -39.779676 -10.016634  15.368227  -0.008549 -33.508374  -0.009384   2.884158  -7.557584  32.476827 -10.131538  -2.167512 -17.677762  51.484766   0.008296  -0.003478  -8.971340  -6.946055   4.236593 -29.197852  -0.017870  -0.006965 -10.143126  -0.715088  18.275060  65.577971   0.018230   0.008904 -11.557598   8.365024   1.398112 -39.199839   0.021347  -0.012700
 -2.185511   0.827225   4.415877 -10.773449  20.687543   0.065180  17.279376   0.458692   1.893100 -10.338429  -0.553180  -0.263939   2.653563  -2.796822   0.681340 -16.252189   3.684671 -36.578881 -41.043473   8.697410 -10.656679  -0.013867  40.692391   0.006817   2.451055   4.175983 -28.983337 -13.803492  -0.431227  36.407429 -39.738477  -9.829931  15.304900  -0.007713 -33.088818  -0.009434   2.774251  -7.339407  32.367826  -9.838492  -2.128457 -17.965749  51.596949   0.007017  -0.002701  -8.753721  -7.000321   4.269020 -29.736735  -0.015642  -0.006931 -10.436502  -0.554055  18.099803  66.307596   0.018050   0.008100 -11.366427   8.545758   1.471161 -39.386553   0.017213  -0.010953
 -2.180854   0.829824   4.417094 -10.807869  20.948971   0.056841  16.982405   0.438367   1.958093  -9.949897  -0.482224  -0.281597   2.799488  -2.804410   0.678016 -16.123870   3.436100 -36.417087 -40.275814   8.171825 -10.258305  -0.023966  39.756034   0.015186   2.722836   4.741454 -29.430591 -13.524003  -0.192465  36.316356 -39.144133  -9.388499  14.943614  -0.017133 -32.091670  -0.021013   2.957511  -7.692341  32.974954  -9.634021  -2.141580 -18.178466  51.253944   0.004586  -0.002206  -6.487507  -6.936773   4.862321 -32.607547  -0.012219  -0.005712 -10.103790  -0.399653  17.854251  65.401790   0.011422   0.007372  -8.441000   8.874668   1.071790 -50.471974   0.005219  -0.050363
